HIERARCHY
ROOT Hips
{
	OFFSET 0.00000 0.00000 0.00000
	CHANNELS 6 Xposition Yposition Zposition Zrotation Yrotation Xrotation 
	JOINT LHipJoint
	{
		OFFSET 0 0 0
		CHANNELS 3 Zrotation Yrotation Xrotation
		JOINT LeftUpLeg
		{
			OFFSET 1.66553 -1.82942 0.76350
			CHANNELS 3 Zrotation Yrotation Xrotation
			JOINT LeftLeg
			{
				OFFSET 2.41740 -6.64177 0.00000
				CHANNELS 3 Zrotation Yrotation Xrotation
				JOINT LeftFoot
				{
					OFFSET 2.71614 -7.46254 0.00000
					CHANNELS 3 Zrotation Yrotation Xrotation
					JOINT LeftToeBase
					{
						OFFSET 0.08005 -0.21993 1.82495
						CHANNELS 3 Zrotation Yrotation Xrotation
						End Site
						{
							OFFSET 0.00000 -0.00000 0.93441
						}
					}
				}
			}
		}
	}
	JOINT RHipJoint
	{
		OFFSET 0 0 0
		CHANNELS 3 Zrotation Yrotation Xrotation
		JOINT RightUpLeg
		{
			OFFSET -1.63725 -1.82942 0.76350
			CHANNELS 3 Zrotation Yrotation Xrotation
			JOINT RightLeg
			{
				OFFSET -2.40538 -6.60872 0.00000
				CHANNELS 3 Zrotation Yrotation Xrotation
				JOINT RightFoot
				{
					OFFSET -2.73312 -7.50919 0.00000
					CHANNELS 3 Zrotation Yrotation Xrotation
					JOINT RightToeBase
					{
						OFFSET -0.15567 -0.42769 1.93504
						CHANNELS 3 Zrotation Yrotation Xrotation
						End Site
						{
							OFFSET -0.00000 -0.00000 1.00100
						}
					}
				}
			}
		}
	}
	JOINT LowerBack
	{
		OFFSET 0 0 0
		CHANNELS 3 Zrotation Yrotation Xrotation
		JOINT Spine
		{
			OFFSET 0.00326 2.30118 -0.13017
			CHANNELS 3 Zrotation Yrotation Xrotation
			JOINT Spine1
			{
				OFFSET 0.02887 2.30677 0.00834
				CHANNELS 3 Zrotation Yrotation Xrotation
				JOINT Neck
				{
					OFFSET 0 0 0
					CHANNELS 3 Zrotation Yrotation Xrotation
					JOINT Neck1
					{
						OFFSET 0.12946 1.68326 0.00713
						CHANNELS 3 Zrotation Yrotation Xrotation
						JOINT Head
						{
							OFFSET -0.24364 1.67243 -0.16079
							CHANNELS 3 Zrotation Yrotation Xrotation
							End Site
							{
								OFFSET -0.09229 1.70819 -0.06383
							}
						}
					}
				}
				JOINT LeftShoulder
				{
					OFFSET 0 0 0
					CHANNELS 3 Zrotation Yrotation Xrotation
					JOINT LeftArm
					{
						OFFSET 3.28104 0.69567 -0.00556
						CHANNELS 3 Zrotation Yrotation Xrotation
						JOINT LeftForeArm
						{
							OFFSET 5.70706 -0.00000 -0.00000
							CHANNELS 3 Zrotation Yrotation Xrotation
							JOINT LeftHand
							{
								OFFSET 3.33243 -0.00000 0.00000
								CHANNELS 3 Zrotation Yrotation Xrotation
								JOINT LeftFingerBase
								{
									OFFSET 0 0 0
									CHANNELS 3 Zrotation Yrotation Xrotation
									JOINT LeftHandIndex1
									{
										OFFSET 0.79269 -0.00000 0.00000
										CHANNELS 3 Zrotation Yrotation Xrotation
										End Site
										{
											OFFSET 0.63909 -0.00000 0.00000
										}
									}
								}
								JOINT LThumb
								{
									OFFSET 0 0 0
									CHANNELS 3 Zrotation Yrotation Xrotation
									End Site
									{
										OFFSET 0.64884 -0.00000 0.64884
									}
								}
							}
						}
					}
				}
				JOINT RightShoulder
				{
					OFFSET 0 0 0
					CHANNELS 3 Zrotation Yrotation Xrotation
					JOINT RightArm
					{
						OFFSET -3.40955 0.64424 0.14010
						CHANNELS 3 Zrotation Yrotation Xrotation
						JOINT RightForeArm
						{
							OFFSET -5.88176 -0.00000 -0.00000
							CHANNELS 3 Zrotation Yrotation Xrotation
							JOINT RightHand
							{
								OFFSET -3.28156 -0.00000 0.00000
								CHANNELS 3 Zrotation Yrotation Xrotation
								JOINT RightFingerBase
								{
									OFFSET 0 0 0
									CHANNELS 3 Zrotation Yrotation Xrotation
									JOINT RightHandIndex1
									{
										OFFSET -0.86313 -0.00000 0.00000
										CHANNELS 3 Zrotation Yrotation Xrotation
										End Site
										{
											OFFSET -0.69587 -0.00000 0.00000
										}
									}
								}
								JOINT RThumb
								{
									OFFSET 0 0 0
									CHANNELS 3 Zrotation Yrotation Xrotation
									End Site
									{
										OFFSET -0.70650 -0.00000 0.70650
									}
								}
							}
						}
					}
				}
			}
		}
	}
}
MOTION
Frames: 5
Frame Time: .0083333
16.3354 17.8812 -8.6998 4.6216 -33.6180 -4.7366 0.0000 0.0000 0.0000 -15.4417 -1.5397 -21.6037 9.5017 17.1199 57.8094 -0.1670 -11.5004 13.7248 0.0125 -0.7220 -1.9842 0.0000 0.0000 0.0000 9.4541 -2.5109 -9.6418 -6.8885 -15.2373 48.4514 -0.1575 10.0036 -9.3878 -1.7001 8.2113 -23.3576 1.5087 -1.4822 3.6634 7.1431 -1.3871 -7.4695 7.0457 -0.5049 -9.8983 18.6864 11.0977 8.9501 -18.0875 14.6711 -24.3754 -9.8295 7.1043 -5.8293 -0.0000 0.0000 0.0000 24.7883 -20.0017 -48.5900 18.0319 -28.1979 -4.5643 -0.0000 0.0000 -55.5087 18.7310 29.7001 9.5368 -7.1250 0.0000 -0.0000 -14.4359 60.4597 -5.5093 -0.0000 0.0000 0.0000 -21.9073 31.7468 -16.2029 -33.0104 43.3381 -13.4292 0.0000 -0.0000 -6.6197 -26.4613 16.8973 -8.2319 7.1250 -0.0000 -0.0000 0.9250 -11.2386 0.7271
16.3938 17.8539 -8.6047 5.2096 -35.5929 -5.2576 0.0000 0.0000 0.0000 -15.3177 -1.6064 -21.7482 9.5966 17.1767 58.1313 -0.2247 -11.0107 11.6594 0.0852 -1.8826 -5.1813 0.0000 0.0000 0.0000 9.4810 -2.8778 -10.0581 -6.8045 -15.1650 48.1311 -0.1281 9.8983 -8.9211 -1.9857 8.8363 -25.2845 1.3677 -1.3946 3.7628 7.3018 -1.2763 -7.3850 7.2911 -0.4368 -9.8726 18.4560 11.2075 9.7699 -18.3672 14.8762 -24.5995 -9.9717 7.2637 -5.9883 -0.0000 -0.0000 0.0000 26.5353 -19.3782 -50.0079 17.8068 -27.9091 -4.4585 -0.0000 0.0000 -55.1447 18.9662 29.1716 9.5095 -7.1250 0.0000 -0.0000 -13.8287 59.9984 -5.1198 -0.0000 -0.0000 0.0000 -20.3697 32.0831 -14.0923 -33.2431 43.5160 -13.5891 0.0000 -0.0000 -6.8888 -25.8695 16.9423 -8.0432 7.1250 -0.0000 -0.0000 1.3198 -11.2797 1.0364
16.4478 17.8300 -8.5106 6.0622 -37.5097 -5.8515 0.0000 0.0000 0.0000 -15.3235 -1.5625 -22.0111 9.6306 17.1968 58.2464 -0.3579 -11.5831 9.4140 0.6013 -4.9639 -13.8057 0.0000 0.0000 0.0000 9.3233 -3.2599 -10.4541 -6.7539 -15.1211 47.9371 -0.1790 8.8710 -9.1485 -1.8535 8.5540 -24.4097 1.0043 -1.3058 3.7221 7.3737 -1.1996 -7.2334 7.5586 -0.3771 -9.6807 18.0559 11.4034 10.1715 -18.3457 15.1431 -24.7279 -9.9429 7.4265 -6.0822 0.0000 0.0000 0.0000 28.2897 -18.6410 -51.1464 17.7034 -27.7758 -4.4102 -0.0000 0.0000 -55.4280 19.3517 28.3744 9.4756 -7.1250 0.0000 -0.0000 -12.9103 59.3028 -4.5576 0.0000 0.0000 0.0000 -18.7579 32.4759 -12.2732 -33.4512 43.6740 -13.7326 0.0000 -0.0000 -6.9035 -25.4323 16.5887 -7.7313 7.1250 -0.0000 -0.0000 1.5773 -11.7292 1.2242
16.4949 17.8289 -8.4164 7.1402 -39.5124 -6.5601 0.0000 0.0000 0.0000 -15.4250 -1.4146 -22.1566 9.5617 17.1559 58.0132 -0.4180 -11.7127 7.3334 1.3070 -7.2422 -20.4348 0.0000 0.0000 0.0000 8.9291 -3.2455 -10.6135 -6.7465 -15.1146 47.9088 -0.2225 8.0819 -9.4520 -0.3548 3.8269 -10.5902 0.6065 -1.1538 3.6787 7.2872 -1.0487 -7.0824 7.6615 -0.2852 -9.4988 17.7973 11.7093 10.0400 -18.1581 15.5455 -24.3748 -9.7810 7.6321 -5.9160 -0.0000 0.0000 0.0000 30.1977 -17.9084 -52.2520 17.6414 -27.6955 -4.3813 -0.0000 0.0000 -55.6676 19.2113 28.1388 9.3323 -7.1250 0.0000 -0.0000 -12.9208 59.0374 -4.4790 -0.0000 0.0000 0.0000 -16.8699 32.8410 -10.6044 -33.5695 43.7632 -13.8144 0.0000 -0.0000 -6.8239 -24.6063 16.7332 -7.5115 7.1250 -0.0000 -0.0000 2.1371 -11.6918 1.6609
16.5391 17.8329 -8.3168 8.0899 -41.6233 -7.2385 0.0000 0.0000 0.0000 -15.3352 -1.1667 -22.1546 9.4133 17.0665 57.5089 -0.4036 -11.1990 4.9149 2.0556 -8.9809 -25.7356 0.0000 0.0000 0.0000 8.6409 -3.1283 -10.6512 -6.7382 -15.1074 47.8770 -0.4012 5.8768 -11.3850 -0.0265 1.0511 -2.8895 0.4399 -0.8430 3.7123 7.1768 -0.6608 -6.9249 7.5826 -0.0936 -9.3919 18.0710 11.9066 9.9246 -18.5869 15.7844 -24.0938 -9.9073 7.7786 -5.6881 -0.0000 0.0000 0.0000 32.2167 -17.5701 -54.0172 17.4746 -27.4792 -4.3041 -0.0000 0.0000 -55.0027 18.7380 28.2881 9.1327 -7.1250 0.0000 -0.0000 -13.5217 59.0766 -4.7047 -0.0000 0.0000 0.0000 -14.8695 32.7166 -8.8546 -33.6731 43.8411 -13.8862 0.0000 -0.0000 -6.8707 -23.5927 17.3943 -7.4385 7.1250 -0.0000 -0.0000 2.8606 -11.1252 2.2578
